<svg width="32" height="31" viewBox="0 0 32 31" fill="none" xmlns="http://www.w3.org/2000/svg">
<g clip-path="url(#clip0_24_107)">
<path d="M31.634 15.5C31.634 6.93958 24.5525 0 15.817 0C7.0815 0 0 6.93958 0 15.5C0 23.2364 5.78402 29.6489 13.3456 30.8117V19.9805H9.32956V15.5H13.3456V12.0852C13.3456 8.20047 15.707 6.05469 19.3199 6.05469C21.0499 6.05469 22.8605 6.35742 22.8605 6.35742V10.1719H20.8661C18.9013 10.1719 18.2884 11.3668 18.2884 12.5938V15.5H22.6751L21.9739 19.9805H18.2884V30.8117C25.85 29.6489 31.634 23.2364 31.634 15.5Z" fill="white"/>
<path d="M21.9739 19.9805L22.6752 15.5H18.2884V12.5938C18.2884 11.368 18.9013 10.1719 20.8661 10.1719H22.8605V6.35742C22.8605 6.35742 21.0505 6.05469 19.3199 6.05469C15.7071 6.05469 13.3456 8.20047 13.3456 12.0852V15.5H9.32959V19.9805H13.3456V30.8117C14.9833 31.0628 16.6508 31.0628 18.2884 30.8117V19.9805H21.9739Z" fill="#1AA179"/>
</g>
<defs>
<clipPath id="clip0_24_107">
<rect width="31.634" height="31" fill="white"/>
</clipPath>
</defs>
</svg>
