<svg width="32" height="31" viewBox="0 0 32 31" fill="none" xmlns="http://www.w3.org/2000/svg">
<g clip-path="url(#clip0_24_105)">
<path d="M15.817 2.79121C20.0431 2.79121 20.5436 2.80937 22.2056 2.88203C23.7502 2.94863 24.5843 3.20293 25.1404 3.41484C25.8756 3.69336 26.407 4.03242 26.9569 4.57129C27.5129 5.11621 27.8527 5.63086 28.137 6.35137C28.3532 6.89629 28.6127 7.71973 28.6807 9.22734C28.7548 10.8621 28.7733 11.3525 28.7733 15.4879C28.7733 19.6293 28.7548 20.1197 28.6807 21.7484C28.6127 23.2621 28.3532 24.0795 28.137 24.6244C27.8527 25.3449 27.5067 25.8656 26.9569 26.4045C26.4008 26.9494 25.8756 27.2824 25.1404 27.5609C24.5843 27.7729 23.744 28.0272 22.2056 28.0938C20.5374 28.1664 20.0369 28.1846 15.817 28.1846C11.5909 28.1846 11.0904 28.1664 9.42841 28.0938C7.88378 28.0272 7.04968 27.7729 6.49362 27.5609C5.75838 27.2824 5.22702 26.9434 4.67713 26.4045C4.12107 25.8596 3.78125 25.3449 3.49704 24.6244C3.28079 24.0795 3.02129 23.2561 2.95333 21.7484C2.87919 20.1137 2.86065 19.6232 2.86065 15.4879C2.86065 11.3465 2.87919 10.8561 2.95333 9.22734C3.02129 7.71367 3.28079 6.89629 3.49704 6.35137C3.78125 5.63086 4.12725 5.11016 4.67713 4.57129C5.2332 4.02637 5.75838 3.69336 6.49362 3.41484C7.04968 3.20293 7.88996 2.94863 9.42841 2.88203C11.0904 2.80937 11.5909 2.79121 15.817 2.79121ZM15.817 0C11.5229 0 10.9854 0.0181641 9.29866 0.0908203C7.61811 0.163477 6.46273 0.429883 5.46181 0.811328C4.41764 1.21094 3.53411 1.7377 2.65676 2.60352C1.77323 3.46328 1.2357 4.3291 0.827921 5.34629C0.438674 6.3332 0.16682 7.45937 0.0926777 9.10625C0.0185355 10.7652 0 11.292 0 15.5C0 19.708 0.0185355 20.2348 0.0926777 21.8877C0.16682 23.5346 0.438674 24.6668 0.827921 25.6477C1.2357 26.6709 1.77323 27.5367 2.65676 28.3965C3.53411 29.2563 4.41764 29.7891 5.45563 30.1826C6.46273 30.5641 7.61193 30.8305 9.29249 30.9031C10.9792 30.9758 11.5167 30.9939 15.8108 30.9939C20.1049 30.9939 20.6424 30.9758 22.3291 30.9031C24.0097 30.8305 25.1651 30.5641 26.166 30.1826C27.204 29.7891 28.0875 29.2563 28.9649 28.3965C29.8422 27.5367 30.3859 26.6709 30.7875 25.6537C31.1768 24.6668 31.4486 23.5406 31.5228 21.8938C31.5969 20.2408 31.6155 19.7141 31.6155 15.5061C31.6155 11.298 31.5969 10.7713 31.5228 9.11836C31.4486 7.47149 31.1768 6.33926 30.7875 5.3584C30.3983 4.3291 29.8608 3.46328 28.9772 2.60352C28.0999 1.74375 27.2164 1.21094 26.1784 0.817383C25.1713 0.435937 24.0221 0.169531 22.3415 0.096875C20.6486 0.0181641 20.1111 0 15.817 0Z" fill="white"/>
<path d="M15.8171 7.53809C11.3315 7.53809 7.69238 11.1043 7.69238 15.5C7.69238 19.8957 11.3315 23.4619 15.8171 23.4619C20.3027 23.4619 23.9419 19.8957 23.9419 15.5C23.9419 11.1043 20.3027 7.53809 15.8171 7.53809ZM15.8171 20.6646C12.907 20.6646 10.5469 18.3518 10.5469 15.5C10.5469 12.6482 12.907 10.3354 15.8171 10.3354C18.7272 10.3354 21.0874 12.6482 21.0874 15.5C21.0874 18.3518 18.7272 20.6646 15.8171 20.6646Z" fill="white"/>
<path d="M26.1598 7.22329C26.1598 8.25259 25.3072 9.08208 24.263 9.08208C23.2127 9.08208 22.3662 8.24654 22.3662 7.22329C22.3662 6.194 23.2188 5.3645 24.263 5.3645C25.3072 5.3645 26.1598 6.20005 26.1598 7.22329Z" fill="white"/>
</g>
<defs>
<clipPath id="clip0_24_105">
<rect width="31.634" height="31" fill="white"/>
</clipPath>
</defs>
</svg>
