<svg width="32" height="31" viewBox="0 0 32 31" fill="none" xmlns="http://www.w3.org/2000/svg">
<g clip-path="url(#clip0_24_106)">
<path d="M10.0923 28.0946C22.0297 28.0946 28.559 18.4028 28.559 9.99807C28.559 9.72279 28.559 9.44875 28.54 9.17595C29.8102 8.2756 30.9067 7.1608 31.778 5.88375C30.5936 6.39835 29.337 6.73568 28.0503 6.88443C29.4052 6.08965 30.4193 4.83944 30.9037 3.36655C29.6297 4.10746 28.2359 4.62958 26.7824 4.91035C25.8038 3.89068 24.5096 3.21548 23.1 2.98923C21.6904 2.76299 20.244 2.99831 18.9847 3.65879C17.7253 4.31927 16.7232 5.36808 16.1334 6.64293C15.5436 7.91777 15.3989 9.34757 15.7219 10.7111C13.1415 10.5842 10.6172 9.92707 8.3128 8.78226C6.0084 7.63744 3.9754 6.03056 2.34577 4.06591C1.51581 5.46607 1.26161 7.12358 1.63493 8.70096C2.00824 10.2783 2.98101 11.657 4.35516 12.5562C3.32225 12.5265 2.31183 12.2535 1.4094 11.7601V11.8407C1.40981 13.3091 1.92853 14.7322 2.87758 15.8686C3.82662 17.005 5.14757 17.7847 6.61636 18.0754C5.66085 18.3308 4.65831 18.3682 3.68578 18.1846C4.10068 19.4482 4.90816 20.5533 5.99533 21.3452C7.0825 22.1371 8.39501 22.5763 9.74939 22.6014C8.40373 23.638 6.86273 24.4043 5.21454 24.8567C3.56636 25.309 1.84333 25.4385 0.144043 25.2377C3.11215 27.1042 6.56564 28.0942 10.0923 28.0897" fill="white"/>
</g>
<defs>
<clipPath id="clip0_24_106">
<rect width="31.634" height="31" fill="white" transform="translate(0.144043)"/>
</clipPath>
</defs>
</svg>
