<svg width="41" height="41" viewBox="0 0 41 41" fill="none" xmlns="http://www.w3.org/2000/svg">
<g clip-path="url(#clip0_24_108)">
<path d="M40.1833 10.5666C39.9515 9.69439 39.4946 8.89832 38.8585 8.25809C38.2224 7.61787 37.4292 7.15595 36.5585 6.91857C33.353 6.05664 20.5405 6.05664 20.5405 6.05664C20.5405 6.05664 7.72803 6.05664 4.52257 6.91857C3.65182 7.15595 2.85869 7.61787 2.22256 8.25809C1.58643 8.89832 1.1296 9.69439 0.8978 10.5666C0.0405274 13.7861 0.0405273 20.4998 0.0405273 20.4998C0.0405273 20.4998 0.0405274 27.2136 0.8978 30.433C1.1296 31.3053 1.58643 32.1013 2.22256 32.7416C2.85869 33.3818 3.65182 33.8437 4.52257 34.0811C7.72803 34.943 20.5405 34.943 20.5405 34.943C20.5405 34.943 33.353 34.943 36.5585 34.0811C37.4292 33.8437 38.2224 33.3818 38.8585 32.7416C39.4946 32.1013 39.9515 31.3053 40.1833 30.433C41.0405 27.2136 41.0405 20.4998 41.0405 20.4998C41.0405 20.4998 41.0405 13.7861 40.1833 10.5666Z" fill="white"/>
<path d="M16.3477 26.5964V14.4036L27.0636 20.5L16.3477 26.5964Z" fill="#1AA179"/>
</g>
<defs>
<clipPath id="clip0_24_108">
<rect width="41" height="41" fill="white"/>
</clipPath>
</defs>
</svg>
